<?xml version="1.0" encoding="iso-8859-1"?>
<!-- Generator: Adobe Illustrator 19.0.0, SVG Export Plug-In . SVG Version: 6.00 Build 0)  -->
<svg version="1.1" id="Layer_1" xmlns="http://www.w3.org/2000/svg" xmlns:xlink="http://www.w3.org/1999/xlink" x="0px" y="0px"
	 viewBox="0 0 512.002 512.002" style="enable-background:new 0 0 512.002 512.002;" xml:space="preserve">
<path style="fill:#80D0E1;" d="M189.129,466.69L45.309,322.871C-2.249,275.313-13.586,203.149,17.098,143.3
	c0.949-1.853,2.182-3.545,3.654-5.016l55.115-55.115c20.651-20.651,54.253-20.651,74.904,0l31.804,31.804
	c20.651,20.651,20.651,54.253,0,74.904l-14.336,14.336c-14.691,14.691-14.689,38.592,0,53.281l86.27,86.27
	c14.689,14.689,38.59,14.689,53.281,0l14.336-14.336c20.651-20.651,54.253-20.651,74.904,0l31.804,31.804
	c20.651,20.651,20.651,54.253,0,74.902c-59.906,59.906-56.244,56.778-60.133,58.771C308.851,525.586,236.687,514.248,189.129,466.69
	z"/>
<g>
	<path style="fill:#FFC72D;" d="M317.858,194.143c-7.809-7.809-7.809-20.47,0-28.279l92.318-92.318
		c7.809-7.809,20.47-7.809,28.279,0c7.809,7.809,7.809,20.47,0,28.279l-92.318,92.318
		C338.327,201.952,325.665,201.952,317.858,194.143z"/>
	<path style="fill:#FFC72D;" d="M240.912,150.555V19.999c0-11.043,8.953-19.996,19.996-19.996c11.043,0,19.996,8.953,19.996,19.996
		v130.556c0,11.043-8.953,19.996-19.996,19.996C249.862,170.55,240.912,161.598,240.912,150.555z"/>
</g>
<path style="fill:#51B3DA;" d="M428.833,361.228l-31.804-31.804c-20.651-20.651-54.253-20.651-74.904,0l-14.336,14.336
	c-14.691,14.691-38.592,14.691-53.281,0l-43.133-43.135l-94.156,94.156l71.908,71.908c66.992,66.992,163.797,45.348,184.589,24.556
	l55.115-55.115C449.484,415.481,449.484,381.879,428.833,361.228z"/>
<g>
	<path style="fill:#FFBE00;" d="M438.454,73.547L317.858,194.144c7.809,7.808,20.47,7.808,28.279-0.001l92.318-92.318
		C446.262,94.017,446.263,81.357,438.454,73.547z"/>
	<path style="fill:#FFBE00;" d="M341.453,251.096c0-11.043,8.953-19.996,19.996-19.996h130.556
		c11.043-0.001,19.996,8.952,19.996,19.996c0,11.043-8.953,19.996-19.996,19.996H361.45
		C350.408,271.093,341.452,262.142,341.453,251.096z"/>
</g>
<g>
</g>
<g>
</g>
<g>
</g>
<g>
</g>
<g>
</g>
<g>
</g>
<g>
</g>
<g>
</g>
<g>
</g>
<g>
</g>
<g>
</g>
<g>
</g>
<g>
</g>
<g>
</g>
<g>
</g>
</svg>
